<svg xmlns="http://www.w3.org/2000/svg" version="1.1" width="500" height="500" viewBox="0 0 500 500"><rect x="0" y="0" width="500" height="500" fill="#ffffff"/><g transform="scale(16.129)"><g transform="translate(1,1)"><g><g transform="translate(3.5,3.5)"><path fill-rule="evenodd" d="M-3.5 -3.5L3.5 -3.5L3.5 3.5L-3.5 3.5ZM-2.5 -2.5L-2.5 2.5L2.5 2.5L2.5 -2.5Z" fill="#000000"/><path fill-rule="evenodd" d="M-1.5 -1.5L1.5 -1.5L1.5 1.5L-1.5 1.5Z" fill="#000000"/></g></g><g><g transform="translate(25.5,3.5)"><g transform="rotate(90)"><path fill-rule="evenodd" d="M-3.5 -3.5L3.5 -3.5L3.5 3.5L-3.5 3.5ZM-2.5 -2.5L-2.5 2.5L2.5 2.5L2.5 -2.5Z" fill="#000000"/><path fill-rule="evenodd" d="M-1.5 -1.5L1.5 -1.5L1.5 1.5L-1.5 1.5Z" fill="#000000"/></g></g></g><g><g transform="translate(3.5,25.5)"><g transform="rotate(-90)"><path fill-rule="evenodd" d="M-3.5 -3.5L3.5 -3.5L3.5 3.5L-3.5 3.5ZM-2.5 -2.5L-2.5 2.5L2.5 2.5L2.5 -2.5Z" fill="#000000"/><path fill-rule="evenodd" d="M-1.5 -1.5L1.5 -1.5L1.5 1.5L-1.5 1.5Z" fill="#000000"/></g></g></g><path fill-rule="evenodd" d="M9 0L9 2L8 2L8 8L10 8L10 14L9 14L9 15L8 15L8 16L6 16L6 15L7 15L7 14L6 14L6 13L8 13L8 12L9 12L9 11L8 11L8 10L9 10L9 9L8 9L8 10L6 10L6 9L7 9L7 8L2 8L2 9L1 9L1 8L0 8L0 10L1 10L1 13L0 13L0 14L1 14L1 13L2 13L2 12L5 12L5 11L8 11L8 12L6 12L6 13L5 13L5 14L3 14L3 15L2 15L2 17L0 17L0 21L1 21L1 18L2 18L2 20L3 20L3 21L8 21L8 22L9 22L9 19L8 19L8 18L10 18L10 17L8 17L8 16L9 16L9 15L11 15L11 17L12 17L12 21L11 21L11 19L10 19L10 23L8 23L8 27L9 27L9 28L8 28L8 29L10 29L10 27L11 27L11 28L12 28L12 29L15 29L15 28L14 28L14 27L15 27L15 26L17 26L17 25L16 25L16 23L17 23L17 24L18 24L18 29L20 29L20 28L19 28L19 25L20 25L20 26L21 26L21 25L23 25L23 27L24 27L24 25L25 25L25 23L26 23L26 25L29 25L29 23L27 23L27 22L28 22L28 20L25 20L25 19L29 19L29 17L28 17L28 18L26 18L26 17L24 17L24 16L25 16L25 15L27 15L27 16L29 16L29 14L28 14L28 13L27 13L27 14L26 14L26 13L24 13L24 12L26 12L26 11L27 11L27 10L28 10L28 9L27 9L27 8L22 8L22 9L24 9L24 10L25 10L25 11L18 11L18 12L17 12L17 11L16 11L16 13L11 13L11 12L13 12L13 10L11 10L11 8L12 8L12 9L13 9L13 8L14 8L14 9L15 9L15 10L17 10L17 9L16 9L16 7L17 7L17 8L18 8L18 10L21 10L21 6L20 6L20 7L19 7L19 6L18 6L18 7L17 7L17 5L16 5L16 4L17 4L17 2L19 2L19 3L20 3L20 5L21 5L21 3L20 3L20 1L21 1L21 0L19 0L19 1L17 1L17 0L15 0L15 1L17 1L17 2L16 2L16 4L13 4L13 5L12 5L12 7L11 7L11 5L10 5L10 4L11 4L11 3L12 3L12 2L11 2L11 1L13 1L13 0ZM10 2L10 3L11 3L11 2ZM14 2L14 3L15 3L15 2ZM18 4L18 5L19 5L19 4ZM9 5L9 7L10 7L10 8L11 8L11 7L10 7L10 5ZM13 6L13 7L14 7L14 8L15 8L15 7L16 7L16 6L15 6L15 7L14 7L14 6ZM18 7L18 8L19 8L19 9L20 9L20 8L19 8L19 7ZM4 9L4 10L3 10L3 11L4 11L4 10L5 10L5 9ZM26 9L26 10L27 10L27 9ZM14 11L14 12L15 12L15 11ZM28 11L28 12L29 12L29 11ZM18 12L18 13L16 13L16 14L18 14L18 15L25 15L25 14L24 14L24 13L23 13L23 14L21 14L21 13L22 13L22 12L21 12L21 13L20 13L20 12ZM5 14L5 15L6 15L6 14ZM11 14L11 15L13 15L13 14ZM0 15L0 16L1 16L1 15ZM3 15L3 16L4 16L4 17L5 17L5 18L3 18L3 20L4 20L4 19L5 19L5 20L7 20L7 19L5 19L5 18L7 18L7 17L5 17L5 16L4 16L4 15ZM14 15L14 16L12 16L12 17L13 17L13 21L12 21L12 22L11 22L11 23L10 23L10 25L9 25L9 26L11 26L11 23L13 23L13 21L16 21L16 22L18 22L18 23L19 23L19 22L20 22L20 20L19 20L19 19L20 19L20 18L21 18L21 19L23 19L23 18L24 18L24 19L25 19L25 18L24 18L24 17L23 17L23 18L21 18L21 17L22 17L22 16L17 16L17 15L16 15L16 17L17 17L17 18L15 18L15 17L14 17L14 16L15 16L15 15ZM14 19L14 20L15 20L15 19ZM16 19L16 21L17 21L17 20L18 20L18 22L19 22L19 20L18 20L18 19ZM21 21L21 24L24 24L24 21ZM25 21L25 22L27 22L27 21ZM22 22L22 23L23 23L23 22ZM14 23L14 24L13 24L13 25L12 25L12 28L13 28L13 25L14 25L14 26L15 26L15 25L14 25L14 24L15 24L15 23ZM26 26L26 27L25 27L25 28L24 28L24 29L27 29L27 27L28 27L28 28L29 28L29 27L28 27L28 26ZM16 27L16 28L17 28L17 27ZM21 28L21 29L23 29L23 28Z" fill="#000000"/></g></g></svg>